<svg width="919" height="199" viewBox="0 0 919 199" fill="none" xmlns="http://www.w3.org/2000/svg">
<g clip-path="url(#clip0_2_28)">
<rect x="750" width="168" height="199.212" rx="20" fill="white"/>
<path d="M770.668 191.75L774.486 168.478H776.759L772.94 191.75H770.668ZM760.077 185.296L760.44 183.023H777.804L777.44 185.296H760.077ZM762.486 191.75L766.304 168.478H768.577L764.759 191.75H762.486ZM761.44 177.205L761.804 174.932H779.168L778.804 177.205H761.44ZM789.537 168.159C790.491 168.167 791.446 168.349 792.401 168.705C793.355 169.061 794.226 169.652 795.014 170.478C795.802 171.296 796.435 172.413 796.912 173.83C797.389 175.247 797.628 177.023 797.628 179.159C797.628 181.228 797.431 183.065 797.037 184.671C796.651 186.269 796.09 187.618 795.355 188.716C794.628 189.815 793.741 190.648 792.696 191.216C791.658 191.784 790.484 192.069 789.173 192.069C787.87 192.069 786.707 191.811 785.685 191.296C784.67 190.773 783.836 190.05 783.185 189.125C782.541 188.194 782.128 187.114 781.946 185.887H784.719C784.969 186.955 785.465 187.837 786.207 188.534C786.957 189.224 787.946 189.569 789.173 189.569C790.969 189.569 792.385 188.784 793.423 187.216C794.469 185.648 794.991 183.432 794.991 180.569H794.81C794.385 181.205 793.882 181.754 793.298 182.216C792.715 182.678 792.067 183.034 791.355 183.284C790.643 183.534 789.885 183.659 789.082 183.659C787.749 183.659 786.526 183.33 785.412 182.671C784.306 182.004 783.42 181.091 782.753 179.932C782.094 178.765 781.764 177.432 781.764 175.932C781.764 174.508 782.082 173.205 782.719 172.023C783.363 170.834 784.264 169.887 785.423 169.182C786.59 168.478 787.961 168.137 789.537 168.159ZM789.537 170.659C788.582 170.659 787.723 170.898 786.957 171.375C786.2 171.845 785.598 172.481 785.151 173.284C784.711 174.08 784.491 174.962 784.491 175.932C784.491 176.902 784.704 177.784 785.128 178.58C785.56 179.368 786.147 179.997 786.889 180.466C787.639 180.928 788.491 181.159 789.446 181.159C790.166 181.159 790.836 181.019 791.457 180.739C792.079 180.451 792.62 180.061 793.082 179.569C793.552 179.069 793.92 178.504 794.185 177.875C794.45 177.239 794.582 176.576 794.582 175.887C794.582 174.978 794.363 174.125 793.923 173.33C793.491 172.534 792.893 171.89 792.128 171.398C791.37 170.906 790.507 170.659 789.537 170.659ZM809.96 192.069C808.46 192.069 807.123 191.811 805.949 191.296C804.782 190.781 803.854 190.065 803.165 189.148C802.483 188.224 802.112 187.152 802.051 185.932H804.915C804.975 186.682 805.233 187.33 805.688 187.875C806.142 188.413 806.737 188.83 807.472 189.125C808.206 189.421 809.021 189.569 809.915 189.569C810.915 189.569 811.801 189.394 812.574 189.046C813.347 188.697 813.953 188.212 814.392 187.591C814.831 186.97 815.051 186.25 815.051 185.432C815.051 184.576 814.839 183.822 814.415 183.171C813.991 182.512 813.369 181.997 812.551 181.625C811.733 181.254 810.733 181.069 809.551 181.069H807.688V178.569H809.551C810.475 178.569 811.286 178.402 811.983 178.069C812.688 177.735 813.237 177.265 813.631 176.659C814.032 176.053 814.233 175.341 814.233 174.523C814.233 173.735 814.059 173.05 813.71 172.466C813.362 171.883 812.869 171.428 812.233 171.103C811.604 170.777 810.862 170.614 810.006 170.614C809.203 170.614 808.445 170.762 807.733 171.057C807.028 171.345 806.453 171.765 806.006 172.319C805.559 172.864 805.316 173.523 805.278 174.296H802.551C802.597 173.076 802.964 172.008 803.653 171.091C804.343 170.167 805.244 169.447 806.358 168.932C807.479 168.417 808.71 168.159 810.051 168.159C811.491 168.159 812.725 168.451 813.756 169.034C814.786 169.61 815.578 170.372 816.131 171.319C816.684 172.265 816.96 173.288 816.96 174.387C816.96 175.697 816.616 176.815 815.926 177.739C815.244 178.663 814.316 179.303 813.142 179.659V179.841C814.612 180.084 815.759 180.709 816.585 181.716C817.411 182.716 817.824 183.955 817.824 185.432C817.824 186.697 817.479 187.834 816.79 188.841C816.108 189.841 815.176 190.629 813.994 191.205C812.813 191.781 811.468 192.069 809.96 192.069ZM841.608 175.75H838.79C838.623 174.94 838.331 174.228 837.915 173.614C837.506 173 837.006 172.485 836.415 172.069C835.831 171.644 835.184 171.326 834.472 171.114C833.759 170.902 833.017 170.796 832.244 170.796C830.835 170.796 829.559 171.152 828.415 171.864C827.278 172.576 826.373 173.625 825.699 175.012C825.032 176.398 824.699 178.099 824.699 180.114C824.699 182.129 825.032 183.83 825.699 185.216C826.373 186.603 827.278 187.652 828.415 188.364C829.559 189.076 830.835 189.432 832.244 189.432C833.017 189.432 833.759 189.326 834.472 189.114C835.184 188.902 835.831 188.587 836.415 188.171C837.006 187.747 837.506 187.228 837.915 186.614C838.331 185.993 838.623 185.281 838.79 184.478H841.608C841.396 185.667 841.009 186.731 840.449 187.671C839.888 188.61 839.191 189.409 838.358 190.069C837.525 190.72 836.589 191.216 835.551 191.557C834.521 191.898 833.419 192.069 832.244 192.069C830.259 192.069 828.494 191.584 826.949 190.614C825.403 189.644 824.188 188.265 823.301 186.478C822.415 184.69 821.972 182.569 821.972 180.114C821.972 177.659 822.415 175.538 823.301 173.75C824.188 171.962 825.403 170.584 826.949 169.614C828.494 168.644 830.259 168.159 832.244 168.159C833.419 168.159 834.521 168.33 835.551 168.671C836.589 169.012 837.525 169.512 838.358 170.171C839.191 170.822 839.888 171.618 840.449 172.557C841.009 173.489 841.396 174.553 841.608 175.75ZM853.344 191.75H846.162V168.478H853.662C855.92 168.478 857.851 168.944 859.457 169.875C861.063 170.8 862.295 172.129 863.151 173.864C864.007 175.591 864.435 177.659 864.435 180.069C864.435 182.493 864.003 184.58 863.139 186.33C862.276 188.072 861.018 189.413 859.366 190.353C857.715 191.284 855.707 191.75 853.344 191.75ZM848.98 189.25H853.162C855.086 189.25 856.681 188.879 857.946 188.137C859.211 187.394 860.154 186.337 860.776 184.966C861.397 183.595 861.707 181.962 861.707 180.069C861.707 178.19 861.401 176.572 860.787 175.216C860.173 173.853 859.257 172.807 858.037 172.08C856.817 171.345 855.298 170.978 853.48 170.978H848.98V189.25ZM869.162 191.75V168.478H883.207V170.978H871.98V178.841H882.48V181.341H871.98V189.25H883.389V191.75H869.162ZM895.469 191.75H888.287V168.478H895.787C898.045 168.478 899.976 168.944 901.582 169.875C903.188 170.8 904.42 172.129 905.276 173.864C906.132 175.591 906.56 177.659 906.56 180.069C906.56 182.493 906.128 184.58 905.264 186.33C904.401 188.072 903.143 189.413 901.491 190.353C899.84 191.284 897.832 191.75 895.469 191.75ZM891.105 189.25H895.287C897.211 189.25 898.806 188.879 900.071 188.137C901.336 187.394 902.279 186.337 902.901 184.966C903.522 183.595 903.832 181.962 903.832 180.069C903.832 178.19 903.526 176.572 902.912 175.216C902.298 173.853 901.382 172.807 900.162 172.08C898.942 171.345 897.423 170.978 895.605 170.978H891.105V189.25Z" fill="black"/>
<rect x="754" y="3.94479" width="160" height="157.792" rx="20" fill="#93CDED"/>
<rect x="562" width="168" height="199.212" rx="20" fill="white"/>
<path d="M586.98 191.75L590.798 168.478H593.071L589.253 191.75H586.98ZM576.389 185.296L576.753 183.023H594.116L593.753 185.296H576.389ZM578.798 191.75L582.616 168.478H584.889L581.071 191.75H578.798ZM577.753 177.205L578.116 174.932H595.48L595.116 177.205H577.753ZM606.168 192.069C605.213 192.053 604.259 191.872 603.304 191.523C602.349 191.175 601.478 190.587 600.69 189.762C599.902 188.928 599.27 187.803 598.793 186.387C598.315 184.962 598.077 183.175 598.077 181.023C598.077 178.962 598.27 177.137 598.656 175.546C599.043 173.947 599.603 172.603 600.338 171.512C601.073 170.413 601.959 169.58 602.997 169.012C604.043 168.444 605.221 168.159 606.531 168.159C607.834 168.159 608.993 168.421 610.009 168.944C611.031 169.459 611.865 170.178 612.509 171.103C613.152 172.027 613.569 173.091 613.759 174.296H610.986C610.728 173.25 610.228 172.383 609.486 171.694C608.743 171.004 607.759 170.659 606.531 170.659C604.728 170.659 603.308 171.444 602.27 173.012C601.24 174.58 600.721 176.781 600.713 179.614H600.895C601.319 178.97 601.823 178.421 602.406 177.966C602.997 177.504 603.649 177.148 604.361 176.898C605.073 176.648 605.827 176.523 606.622 176.523C607.955 176.523 609.175 176.856 610.281 177.523C611.387 178.182 612.274 179.095 612.94 180.262C613.607 181.421 613.94 182.75 613.94 184.25C613.94 185.69 613.618 187.008 612.974 188.205C612.33 189.394 611.425 190.341 610.259 191.046C609.099 191.743 607.736 192.084 606.168 192.069ZM606.168 189.569C607.122 189.569 607.978 189.33 608.736 188.853C609.501 188.375 610.103 187.735 610.543 186.932C610.99 186.129 611.213 185.235 611.213 184.25C611.213 183.288 610.997 182.413 610.565 181.625C610.141 180.83 609.554 180.197 608.804 179.728C608.062 179.258 607.213 179.023 606.259 179.023C605.539 179.023 604.868 179.167 604.247 179.455C603.626 179.735 603.08 180.122 602.611 180.614C602.149 181.106 601.785 181.671 601.52 182.307C601.255 182.936 601.122 183.599 601.122 184.296C601.122 185.22 601.338 186.084 601.77 186.887C602.209 187.69 602.808 188.337 603.565 188.83C604.33 189.322 605.198 189.569 606.168 189.569ZM625.864 192.069C624.303 192.069 622.924 191.792 621.727 191.239C620.538 190.678 619.61 189.909 618.943 188.932C618.277 187.947 617.947 186.826 617.955 185.569C617.947 184.584 618.14 183.675 618.534 182.841C618.928 182 619.466 181.3 620.148 180.739C620.837 180.171 621.606 179.811 622.455 179.659V179.523C621.341 179.235 620.455 178.61 619.795 177.648C619.136 176.678 618.811 175.576 618.818 174.341C618.811 173.159 619.11 172.103 619.716 171.171C620.322 170.239 621.155 169.504 622.216 168.966C623.284 168.428 624.5 168.159 625.864 168.159C627.212 168.159 628.417 168.428 629.477 168.966C630.538 169.504 631.371 170.239 631.977 171.171C632.591 172.103 632.902 173.159 632.909 174.341C632.902 175.576 632.564 176.678 631.898 177.648C631.239 178.61 630.364 179.235 629.273 179.523V179.659C630.114 179.811 630.871 180.171 631.545 180.739C632.22 181.3 632.758 182 633.159 182.841C633.561 183.675 633.765 184.584 633.773 185.569C633.765 186.826 633.424 187.947 632.75 188.932C632.083 189.909 631.155 190.678 629.966 191.239C628.784 191.792 627.417 192.069 625.864 192.069ZM625.864 189.569C626.917 189.569 627.826 189.398 628.591 189.057C629.356 188.716 629.947 188.235 630.364 187.614C630.78 186.993 630.992 186.265 631 185.432C630.992 184.553 630.765 183.777 630.318 183.103C629.871 182.428 629.261 181.898 628.489 181.512C627.723 181.125 626.848 180.932 625.864 180.932C624.871 180.932 623.985 181.125 623.205 181.512C622.432 181.898 621.822 182.428 621.375 183.103C620.936 183.777 620.72 184.553 620.727 185.432C620.72 186.265 620.92 186.993 621.33 187.614C621.746 188.235 622.341 188.716 623.114 189.057C623.886 189.398 624.803 189.569 625.864 189.569ZM625.864 178.523C626.697 178.523 627.436 178.356 628.08 178.023C628.731 177.69 629.242 177.224 629.614 176.625C629.985 176.027 630.174 175.326 630.182 174.523C630.174 173.735 629.989 173.05 629.625 172.466C629.261 171.875 628.758 171.421 628.114 171.103C627.47 170.777 626.72 170.614 625.864 170.614C624.992 170.614 624.231 170.777 623.58 171.103C622.928 171.421 622.424 171.875 622.068 172.466C621.712 173.05 621.538 173.735 621.545 174.523C621.538 175.326 621.716 176.027 622.08 176.625C622.451 177.224 622.962 177.69 623.614 178.023C624.265 178.356 625.015 178.523 625.864 178.523ZM639.491 191.75H636.537L645.082 168.478H647.991L656.537 191.75H653.582L646.628 172.159H646.446L639.491 191.75ZM640.582 182.659H652.491V185.159H640.582V182.659ZM667.48 192.069C666.526 192.053 665.571 191.872 664.616 191.523C663.662 191.175 662.791 190.587 662.003 189.762C661.215 188.928 660.582 187.803 660.105 186.387C659.628 184.962 659.389 183.175 659.389 181.023C659.389 178.962 659.582 177.137 659.969 175.546C660.355 173.947 660.916 172.603 661.651 171.512C662.385 170.413 663.272 169.58 664.31 169.012C665.355 168.444 666.533 168.159 667.844 168.159C669.147 168.159 670.306 168.421 671.321 168.944C672.344 169.459 673.177 170.178 673.821 171.103C674.465 172.027 674.882 173.091 675.071 174.296H672.298C672.041 173.25 671.541 172.383 670.798 171.694C670.056 171.004 669.071 170.659 667.844 170.659C666.041 170.659 664.62 171.444 663.582 173.012C662.552 174.58 662.033 176.781 662.026 179.614H662.207C662.632 178.97 663.135 178.421 663.719 177.966C664.31 177.504 664.961 177.148 665.673 176.898C666.385 176.648 667.139 176.523 667.935 176.523C669.268 176.523 670.488 176.856 671.594 177.523C672.7 178.182 673.586 179.095 674.253 180.262C674.92 181.421 675.253 182.75 675.253 184.25C675.253 185.69 674.931 187.008 674.287 188.205C673.643 189.394 672.738 190.341 671.571 191.046C670.412 191.743 669.048 192.084 667.48 192.069ZM667.48 189.569C668.435 189.569 669.291 189.33 670.048 188.853C670.813 188.375 671.416 187.735 671.855 186.932C672.302 186.129 672.526 185.235 672.526 184.25C672.526 183.288 672.31 182.413 671.878 181.625C671.454 180.83 670.866 180.197 670.116 179.728C669.374 179.258 668.526 179.023 667.571 179.023C666.851 179.023 666.181 179.167 665.56 179.455C664.938 179.735 664.393 180.122 663.923 180.614C663.461 181.106 663.098 181.671 662.832 182.307C662.567 182.936 662.435 183.599 662.435 184.296C662.435 185.22 662.651 186.084 663.082 186.887C663.522 187.69 664.12 188.337 664.878 188.83C665.643 189.322 666.51 189.569 667.48 189.569ZM680.131 191.75V168.478H694.176V170.978H682.949V178.841H693.449V181.341H682.949V189.25H694.358V191.75H680.131ZM706.301 192.069C704.741 192.069 703.362 191.792 702.165 191.239C700.975 190.678 700.047 189.909 699.381 188.932C698.714 187.947 698.384 186.826 698.392 185.569C698.384 184.584 698.578 183.675 698.972 182.841C699.366 182 699.903 181.3 700.585 180.739C701.275 180.171 702.044 179.811 702.892 179.659V179.523C701.778 179.235 700.892 178.61 700.233 177.648C699.574 176.678 699.248 175.576 699.256 174.341C699.248 173.159 699.547 172.103 700.153 171.171C700.759 170.239 701.593 169.504 702.653 168.966C703.722 168.428 704.938 168.159 706.301 168.159C707.65 168.159 708.854 168.428 709.915 168.966C710.975 169.504 711.809 170.239 712.415 171.171C713.028 172.103 713.339 173.159 713.347 174.341C713.339 175.576 713.002 176.678 712.335 177.648C711.676 178.61 710.801 179.235 709.71 179.523V179.659C710.551 179.811 711.309 180.171 711.983 180.739C712.657 181.3 713.195 182 713.597 182.841C713.998 183.675 714.203 184.584 714.21 185.569C714.203 186.826 713.862 187.947 713.188 188.932C712.521 189.909 711.593 190.678 710.403 191.239C709.222 191.792 707.854 192.069 706.301 192.069ZM706.301 189.569C707.354 189.569 708.263 189.398 709.028 189.057C709.794 188.716 710.384 188.235 710.801 187.614C711.218 186.993 711.43 186.265 711.438 185.432C711.43 184.553 711.203 183.777 710.756 183.103C710.309 182.428 709.699 181.898 708.926 181.512C708.161 181.125 707.286 180.932 706.301 180.932C705.309 180.932 704.422 181.125 703.642 181.512C702.869 181.898 702.259 182.428 701.812 183.103C701.373 183.777 701.157 184.553 701.165 185.432C701.157 186.265 701.358 186.993 701.767 187.614C702.184 188.235 702.778 188.716 703.551 189.057C704.324 189.398 705.241 189.569 706.301 189.569ZM706.301 178.523C707.134 178.523 707.873 178.356 708.517 178.023C709.169 177.69 709.68 177.224 710.051 176.625C710.422 176.027 710.612 175.326 710.619 174.523C710.612 173.735 710.426 173.05 710.062 172.466C709.699 171.875 709.195 171.421 708.551 171.103C707.907 170.777 707.157 170.614 706.301 170.614C705.43 170.614 704.669 170.777 704.017 171.103C703.366 171.421 702.862 171.875 702.506 172.466C702.15 173.05 701.975 173.735 701.983 174.523C701.975 175.326 702.153 176.027 702.517 176.625C702.888 177.224 703.4 177.69 704.051 178.023C704.703 178.356 705.453 178.523 706.301 178.523Z" fill="black"/>
<rect x="566" y="3.94479" width="160" height="157.792" rx="20" fill="#68A6E8"/>
<rect x="374" width="168" height="199.212" rx="20" fill="white"/>
<path d="M397.324 191.75L401.142 168.478H403.415L399.597 191.75H397.324ZM386.733 185.296L387.097 183.023H404.46L404.097 185.296H386.733ZM389.142 191.75L392.96 168.478H395.233L391.415 191.75H389.142ZM388.097 177.205L388.46 174.932H405.824L405.46 177.205H388.097ZM409.511 191.75L419.92 171.159V170.978H407.92V168.478H422.83V171.114L412.466 191.75H409.511ZM428.418 191.75L438.827 171.159V170.978H426.827V168.478H441.736V171.114L431.372 191.75H428.418ZM465.108 175.75H462.29C462.123 174.94 461.831 174.228 461.415 173.614C461.006 173 460.506 172.485 459.915 172.069C459.331 171.644 458.684 171.326 457.972 171.114C457.259 170.902 456.517 170.796 455.744 170.796C454.335 170.796 453.059 171.152 451.915 171.864C450.778 172.576 449.873 173.625 449.199 175.012C448.532 176.398 448.199 178.099 448.199 180.114C448.199 182.129 448.532 183.83 449.199 185.216C449.873 186.603 450.778 187.652 451.915 188.364C453.059 189.076 454.335 189.432 455.744 189.432C456.517 189.432 457.259 189.326 457.972 189.114C458.684 188.902 459.331 188.587 459.915 188.171C460.506 187.747 461.006 187.228 461.415 186.614C461.831 185.993 462.123 185.281 462.29 184.478H465.108C464.896 185.667 464.509 186.731 463.949 187.671C463.388 188.61 462.691 189.409 461.858 190.069C461.025 190.72 460.089 191.216 459.051 191.557C458.021 191.898 456.919 192.069 455.744 192.069C453.759 192.069 451.994 191.584 450.449 190.614C448.903 189.644 447.688 188.265 446.801 186.478C445.915 184.69 445.472 182.569 445.472 180.114C445.472 177.659 445.915 175.538 446.801 173.75C447.688 171.962 448.903 170.584 450.449 169.614C451.994 168.644 453.759 168.159 455.744 168.159C456.919 168.159 458.021 168.33 459.051 168.671C460.089 169.012 461.025 169.512 461.858 170.171C462.691 170.822 463.388 171.618 463.949 172.557C464.509 173.489 464.896 174.553 465.108 175.75ZM476.844 192.069C475.132 192.069 473.673 191.603 472.469 190.671C471.264 189.731 470.344 188.372 469.707 186.591C469.071 184.803 468.753 182.644 468.753 180.114C468.753 177.599 469.071 175.451 469.707 173.671C470.351 171.883 471.276 170.519 472.48 169.58C473.692 168.633 475.147 168.159 476.844 168.159C478.541 168.159 479.991 168.633 481.196 169.58C482.408 170.519 483.332 171.883 483.969 173.671C484.613 175.451 484.935 177.599 484.935 180.114C484.935 182.644 484.616 184.803 483.98 186.591C483.344 188.372 482.423 189.731 481.219 190.671C480.014 191.603 478.556 192.069 476.844 192.069ZM476.844 189.569C478.541 189.569 479.859 188.75 480.798 187.114C481.738 185.478 482.207 183.144 482.207 180.114C482.207 178.099 481.991 176.383 481.56 174.966C481.135 173.55 480.522 172.47 479.719 171.728C478.923 170.985 477.965 170.614 476.844 170.614C475.162 170.614 473.848 171.444 472.901 173.103C471.954 174.754 471.48 177.091 471.48 180.114C471.48 182.129 471.692 183.841 472.116 185.25C472.541 186.659 473.151 187.731 473.946 188.466C474.749 189.201 475.715 189.569 476.844 189.569ZM496.844 191.75H489.662V168.478H497.162C499.42 168.478 501.351 168.944 502.957 169.875C504.563 170.8 505.795 172.129 506.651 173.864C507.507 175.591 507.935 177.659 507.935 180.069C507.935 182.493 507.503 184.58 506.639 186.33C505.776 188.072 504.518 189.413 502.866 190.353C501.215 191.284 499.207 191.75 496.844 191.75ZM492.48 189.25H496.662C498.586 189.25 500.181 188.879 501.446 188.137C502.711 187.394 503.654 186.337 504.276 184.966C504.897 183.595 505.207 181.962 505.207 180.069C505.207 178.19 504.901 176.572 504.287 175.216C503.673 173.853 502.757 172.807 501.537 172.08C500.317 171.345 498.798 170.978 496.98 170.978H492.48V189.25ZM519.98 192.069C519.026 192.053 518.071 191.872 517.116 191.523C516.162 191.175 515.291 190.587 514.503 189.762C513.715 188.928 513.082 187.803 512.605 186.387C512.128 184.962 511.889 183.175 511.889 181.023C511.889 178.962 512.082 177.137 512.469 175.546C512.855 173.947 513.416 172.603 514.151 171.512C514.885 170.413 515.772 169.58 516.81 169.012C517.855 168.444 519.033 168.159 520.344 168.159C521.647 168.159 522.806 168.421 523.821 168.944C524.844 169.459 525.677 170.178 526.321 171.103C526.965 172.027 527.382 173.091 527.571 174.296H524.798C524.541 173.25 524.041 172.383 523.298 171.694C522.556 171.004 521.571 170.659 520.344 170.659C518.541 170.659 517.12 171.444 516.082 173.012C515.052 174.58 514.533 176.781 514.526 179.614H514.707C515.132 178.97 515.635 178.421 516.219 177.966C516.81 177.504 517.461 177.148 518.173 176.898C518.885 176.648 519.639 176.523 520.435 176.523C521.768 176.523 522.988 176.856 524.094 177.523C525.2 178.182 526.086 179.095 526.753 180.262C527.42 181.421 527.753 182.75 527.753 184.25C527.753 185.69 527.431 187.008 526.787 188.205C526.143 189.394 525.238 190.341 524.071 191.046C522.912 191.743 521.548 192.084 519.98 192.069ZM519.98 189.569C520.935 189.569 521.791 189.33 522.548 188.853C523.313 188.375 523.916 187.735 524.355 186.932C524.802 186.129 525.026 185.235 525.026 184.25C525.026 183.288 524.81 182.413 524.378 181.625C523.954 180.83 523.366 180.197 522.616 179.728C521.874 179.258 521.026 179.023 520.071 179.023C519.351 179.023 518.681 179.167 518.06 179.455C517.438 179.735 516.893 180.122 516.423 180.614C515.961 181.106 515.598 181.671 515.332 182.307C515.067 182.936 514.935 183.599 514.935 184.296C514.935 185.22 515.151 186.084 515.582 186.887C516.022 187.69 516.62 188.337 517.378 188.83C518.143 189.322 519.01 189.569 519.98 189.569Z" fill="black"/>
<rect x="378" y="3.94479" width="160" height="157.792" rx="20" fill="#77C0D6"/>
<rect x="187" width="168" height="199.212" rx="20" fill="white"/>
<path d="M211.949 191.75L215.767 168.478H218.04L214.222 191.75H211.949ZM201.358 185.296L201.722 183.023H219.085L218.722 185.296H201.358ZM203.767 191.75L207.585 168.478H209.858L206.04 191.75H203.767ZM202.722 177.205L203.085 174.932H220.449L220.085 177.205H202.722ZM231.273 192.069C229.773 192.069 228.436 191.811 227.261 191.296C226.095 190.781 225.167 190.065 224.477 189.148C223.795 188.224 223.424 187.152 223.364 185.932H226.227C226.288 186.682 226.545 187.33 227 187.875C227.455 188.413 228.049 188.83 228.784 189.125C229.519 189.421 230.333 189.569 231.227 189.569C232.227 189.569 233.114 189.394 233.886 189.046C234.659 188.697 235.265 188.212 235.705 187.591C236.144 186.97 236.364 186.25 236.364 185.432C236.364 184.576 236.152 183.822 235.727 183.171C235.303 182.512 234.682 181.997 233.864 181.625C233.045 181.254 232.045 181.069 230.864 181.069H229V178.569H230.864C231.788 178.569 232.598 178.402 233.295 178.069C234 177.735 234.549 177.265 234.943 176.659C235.345 176.053 235.545 175.341 235.545 174.523C235.545 173.735 235.371 173.05 235.023 172.466C234.674 171.883 234.182 171.428 233.545 171.103C232.917 170.777 232.174 170.614 231.318 170.614C230.515 170.614 229.758 170.762 229.045 171.057C228.341 171.345 227.765 171.765 227.318 172.319C226.871 172.864 226.629 173.523 226.591 174.296H223.864C223.909 173.076 224.277 172.008 224.966 171.091C225.655 170.167 226.557 169.447 227.67 168.932C228.792 168.417 230.023 168.159 231.364 168.159C232.803 168.159 234.038 168.451 235.068 169.034C236.098 169.61 236.89 170.372 237.443 171.319C237.996 172.265 238.273 173.288 238.273 174.387C238.273 175.697 237.928 176.815 237.239 177.739C236.557 178.663 235.629 179.303 234.455 179.659V179.841C235.924 180.084 237.072 180.709 237.898 181.716C238.723 182.716 239.136 183.955 239.136 185.432C239.136 186.697 238.792 187.834 238.102 188.841C237.42 189.841 236.489 190.629 235.307 191.205C234.125 191.781 232.78 192.069 231.273 192.069ZM245.148 191.75H242.193L250.739 168.478H253.648L262.193 191.75H259.239L252.284 172.159H252.102L245.148 191.75ZM246.239 182.659H258.148V185.159H246.239V182.659ZM272.682 192.069C271.348 192.069 270.148 191.803 269.08 191.273C268.011 190.743 267.155 190.015 266.511 189.091C265.867 188.167 265.515 187.114 265.455 185.932H268.182C268.288 186.985 268.765 187.856 269.614 188.546C270.47 189.228 271.492 189.569 272.682 189.569C273.636 189.569 274.485 189.345 275.227 188.898C275.977 188.451 276.564 187.837 276.989 187.057C277.42 186.269 277.636 185.379 277.636 184.387C277.636 183.372 277.413 182.466 276.966 181.671C276.527 180.868 275.92 180.235 275.148 179.773C274.375 179.311 273.492 179.076 272.5 179.069C271.788 179.061 271.057 179.171 270.307 179.398C269.557 179.618 268.939 179.902 268.455 180.25L265.818 179.932L267.227 168.478H279.318V170.978H269.591L268.773 177.841H268.909C269.386 177.462 269.985 177.148 270.705 176.898C271.424 176.648 272.174 176.523 272.955 176.523C274.379 176.523 275.648 176.864 276.761 177.546C277.883 178.22 278.761 179.144 279.398 180.319C280.042 181.493 280.364 182.834 280.364 184.341C280.364 185.826 280.03 187.152 279.364 188.319C278.705 189.478 277.795 190.394 276.636 191.069C275.477 191.735 274.159 192.069 272.682 192.069ZM285.287 191.75V168.478H299.241V170.978H288.105V178.841H298.196V181.341H288.105V191.75H285.287ZM311.068 168.159C312.023 168.167 312.977 168.349 313.932 168.705C314.886 169.061 315.758 169.652 316.545 170.478C317.333 171.296 317.966 172.413 318.443 173.83C318.92 175.247 319.159 177.023 319.159 179.159C319.159 181.228 318.962 183.065 318.568 184.671C318.182 186.269 317.621 187.618 316.886 188.716C316.159 189.815 315.273 190.648 314.227 191.216C313.189 191.784 312.015 192.069 310.705 192.069C309.402 192.069 308.239 191.811 307.216 191.296C306.201 190.773 305.367 190.05 304.716 189.125C304.072 188.194 303.659 187.114 303.477 185.887H306.25C306.5 186.955 306.996 187.837 307.739 188.534C308.489 189.224 309.477 189.569 310.705 189.569C312.5 189.569 313.917 188.784 314.955 187.216C316 185.648 316.523 183.432 316.523 180.569H316.341C315.917 181.205 315.413 181.754 314.83 182.216C314.246 182.678 313.598 183.034 312.886 183.284C312.174 183.534 311.417 183.659 310.614 183.659C309.28 183.659 308.057 183.33 306.943 182.671C305.837 182.004 304.951 181.091 304.284 179.932C303.625 178.765 303.295 177.432 303.295 175.932C303.295 174.508 303.614 173.205 304.25 172.023C304.894 170.834 305.795 169.887 306.955 169.182C308.121 168.478 309.492 168.137 311.068 168.159ZM311.068 170.659C310.114 170.659 309.254 170.898 308.489 171.375C307.731 171.845 307.129 172.481 306.682 173.284C306.242 174.08 306.023 174.962 306.023 175.932C306.023 176.902 306.235 177.784 306.659 178.58C307.091 179.368 307.678 179.997 308.42 180.466C309.17 180.928 310.023 181.159 310.977 181.159C311.697 181.159 312.367 181.019 312.989 180.739C313.61 180.451 314.152 180.061 314.614 179.569C315.083 179.069 315.451 178.504 315.716 177.875C315.981 177.239 316.114 176.576 316.114 175.887C316.114 174.978 315.894 174.125 315.455 173.33C315.023 172.534 314.424 171.89 313.659 171.398C312.902 170.906 312.038 170.659 311.068 170.659ZM331.355 192.069C330.401 192.053 329.446 191.872 328.491 191.523C327.537 191.175 326.666 190.587 325.878 189.762C325.09 188.928 324.457 187.803 323.98 186.387C323.503 184.962 323.264 183.175 323.264 181.023C323.264 178.962 323.457 177.137 323.844 175.546C324.23 173.947 324.791 172.603 325.526 171.512C326.26 170.413 327.147 169.58 328.185 169.012C329.23 168.444 330.408 168.159 331.719 168.159C333.022 168.159 334.181 168.421 335.196 168.944C336.219 169.459 337.052 170.178 337.696 171.103C338.34 172.027 338.757 173.091 338.946 174.296H336.173C335.916 173.25 335.416 172.383 334.673 171.694C333.931 171.004 332.946 170.659 331.719 170.659C329.916 170.659 328.495 171.444 327.457 173.012C326.427 174.58 325.908 176.781 325.901 179.614H326.082C326.507 178.97 327.01 178.421 327.594 177.966C328.185 177.504 328.836 177.148 329.548 176.898C330.26 176.648 331.014 176.523 331.81 176.523C333.143 176.523 334.363 176.856 335.469 177.523C336.575 178.182 337.461 179.095 338.128 180.262C338.795 181.421 339.128 182.75 339.128 184.25C339.128 185.69 338.806 187.008 338.162 188.205C337.518 189.394 336.613 190.341 335.446 191.046C334.287 191.743 332.923 192.084 331.355 192.069ZM331.355 189.569C332.31 189.569 333.166 189.33 333.923 188.853C334.688 188.375 335.291 187.735 335.73 186.932C336.177 186.129 336.401 185.235 336.401 184.25C336.401 183.288 336.185 182.413 335.753 181.625C335.329 180.83 334.741 180.197 333.991 179.728C333.249 179.258 332.401 179.023 331.446 179.023C330.726 179.023 330.056 179.167 329.435 179.455C328.813 179.735 328.268 180.122 327.798 180.614C327.336 181.106 326.973 181.671 326.707 182.307C326.442 182.936 326.31 183.599 326.31 184.296C326.31 185.22 326.526 186.084 326.957 186.887C327.397 187.69 327.995 188.337 328.753 188.83C329.518 189.322 330.385 189.569 331.355 189.569Z" fill="black"/>
<rect x="191" y="3.94479" width="160" height="157.792" rx="20" fill="#3A5F96"/>
<rect y="0.0552368" width="168" height="199.212" rx="20" fill="white"/>
<path d="M27.5426 191.806L31.3608 168.533H33.6335L29.8153 191.806H27.5426ZM16.9517 185.351L17.3153 183.078H34.679L34.3153 185.351H16.9517ZM19.3608 191.806L23.179 168.533H25.4517L21.6335 191.806H19.3608ZM18.3153 177.26L18.679 174.987H36.0426L35.679 177.26H18.3153ZM39.4119 191.806V168.533H53.3665V171.033H42.2301V178.896H52.321V181.396H42.2301V191.806H39.4119ZM56.2415 191.806H53.2869L61.8324 168.533H64.7415L73.2869 191.806H70.3324L63.3778 172.215H63.196L56.2415 191.806ZM57.3324 182.715H69.2415V185.215H57.3324V182.715ZM76.9119 191.806V168.533H90.8665V171.033H79.7301V178.896H89.821V181.396H79.7301V191.806H76.9119ZM102.693 168.215C103.648 168.222 104.602 168.404 105.557 168.76C106.511 169.116 107.383 169.707 108.17 170.533C108.958 171.351 109.591 172.468 110.068 173.885C110.545 175.302 110.784 177.078 110.784 179.215C110.784 181.283 110.587 183.12 110.193 184.726C109.807 186.325 109.246 187.673 108.511 188.771C107.784 189.87 106.898 190.703 105.852 191.271C104.814 191.84 103.64 192.124 102.33 192.124C101.027 192.124 99.8636 191.866 98.8409 191.351C97.8258 190.828 96.9924 190.105 96.3409 189.181C95.697 188.249 95.2841 187.169 95.1023 185.942H97.875C98.125 187.01 98.6212 187.893 99.3636 188.59C100.114 189.279 101.102 189.624 102.33 189.624C104.125 189.624 105.542 188.84 106.58 187.271C107.625 185.703 108.148 183.487 108.148 180.624H107.966C107.542 181.26 107.038 181.809 106.455 182.271C105.871 182.734 105.223 183.09 104.511 183.34C103.799 183.59 103.042 183.715 102.239 183.715C100.905 183.715 99.6818 183.385 98.5682 182.726C97.4621 182.059 96.5758 181.146 95.9091 179.987C95.25 178.821 94.9205 177.487 94.9205 175.987C94.9205 174.563 95.2386 173.26 95.875 172.078C96.5189 170.889 97.4205 169.942 98.5795 169.237C99.7462 168.533 101.117 168.192 102.693 168.215ZM102.693 170.715C101.739 170.715 100.879 170.953 100.114 171.431C99.3561 171.9 98.7538 172.537 98.3068 173.34C97.8674 174.135 97.6477 175.018 97.6477 175.987C97.6477 176.957 97.8598 177.84 98.2841 178.635C98.7159 179.423 99.303 180.052 100.045 180.521C100.795 180.984 101.648 181.215 102.602 181.215C103.322 181.215 103.992 181.075 104.614 180.794C105.235 180.506 105.777 180.116 106.239 179.624C106.708 179.124 107.076 178.559 107.341 177.931C107.606 177.294 107.739 176.631 107.739 175.942C107.739 175.033 107.519 174.181 107.08 173.385C106.648 172.59 106.049 171.946 105.284 171.453C104.527 170.961 103.663 170.715 102.693 170.715ZM115.662 191.806V168.533H129.616V171.033H118.48V178.896H128.571V181.396H118.48V191.806H115.662ZM141.761 192.124C140.807 192.109 139.852 191.927 138.898 191.578C137.943 191.23 137.072 190.643 136.284 189.817C135.496 188.984 134.864 187.859 134.386 186.442C133.909 185.018 133.67 183.23 133.67 181.078C133.67 179.018 133.864 177.192 134.25 175.601C134.636 174.003 135.197 172.658 135.932 171.567C136.667 170.468 137.553 169.635 138.591 169.067C139.636 168.499 140.814 168.215 142.125 168.215C143.428 168.215 144.587 168.476 145.602 168.999C146.625 169.514 147.458 170.234 148.102 171.158C148.746 172.082 149.163 173.146 149.352 174.351H146.58C146.322 173.306 145.822 172.438 145.08 171.749C144.337 171.059 143.352 170.715 142.125 170.715C140.322 170.715 138.902 171.499 137.864 173.067C136.833 174.635 136.314 176.836 136.307 179.669H136.489C136.913 179.025 137.417 178.476 138 178.021C138.591 177.559 139.242 177.203 139.955 176.953C140.667 176.703 141.42 176.578 142.216 176.578C143.549 176.578 144.769 176.912 145.875 177.578C146.981 178.237 147.867 179.15 148.534 180.317C149.201 181.476 149.534 182.806 149.534 184.306C149.534 185.745 149.212 187.063 148.568 188.26C147.924 189.45 147.019 190.396 145.852 191.101C144.693 191.798 143.33 192.139 141.761 192.124ZM141.761 189.624C142.716 189.624 143.572 189.385 144.33 188.908C145.095 188.431 145.697 187.79 146.136 186.987C146.583 186.184 146.807 185.29 146.807 184.306C146.807 183.343 146.591 182.468 146.159 181.681C145.735 180.885 145.148 180.253 144.398 179.783C143.655 179.313 142.807 179.078 141.852 179.078C141.133 179.078 140.462 179.222 139.841 179.51C139.22 179.79 138.674 180.177 138.205 180.669C137.742 181.162 137.379 181.726 137.114 182.362C136.848 182.991 136.716 183.654 136.716 184.351C136.716 185.275 136.932 186.139 137.364 186.942C137.803 187.745 138.402 188.393 139.159 188.885C139.924 189.378 140.792 189.624 141.761 189.624Z" fill="black"/>
<path d="M4 24.0001C4 12.9544 12.9543 4.00006 24 4.00006H144C155.046 4.00006 164 12.9544 164 24.0001V141.792C164 152.837 155.046 161.792 144 161.792H24C12.9543 161.792 4 152.837 4 141.792V24.0001Z" fill="#FAF9F6"/>
</g>
<defs>
<clipPath id="clip0_2_28">
<rect width="919" height="199" fill="white"/>
</clipPath>
</defs>
</svg>
