<svg xmlns="http://www.w3.org/2000/svg" xmlns:xlink="http://www.w3.org/1999/xlink" style="display:none">
    <!-- Chevron Left Icon -->
    <symbol id="chevron-left" viewBox="0 0 24 24" fill="none" stroke="currentColor" stroke-width="2" stroke-linecap="round" stroke-linejoin="round">
        <path d="m15 18-6-6 6-6"/>
    </symbol>

    <!-- Chevron Right Icon -->
    <symbol id="chevron-right" viewBox="0 0 24 24" fill="none" stroke="currentColor" stroke-width="2" stroke-linecap="round" stroke-linejoin="round">
        <path d="m9 18 6-6-6-6"/>
    </symbol>

    <!-- Grid 3x3 Icon -->
    <symbol id="grid-3x3" viewBox="0 0 24 24" fill="none" stroke="currentColor" stroke-width="2" stroke-linecap="round" stroke-linejoin="round">
        <rect width="18" height="18" x="3" y="3" rx="2"/>
        <path d="M3 9h18"/>
        <path d="M3 15h18"/>
        <path d="M9 3v18"/>
        <path d="M15 3v18"/>
    </symbol>

    <!-- List Video Icon -->
    <symbol id="list-video" viewBox="0 0 24 24" fill="none" stroke="currentColor" stroke-width="2" stroke-linecap="round" stroke-linejoin="round">
        <path d="M21 5H3"/>
        <path d="M10 12H3"/>
        <path d="M10 19H3"/>
        <path d="M15 12.003a1 1 0 0 1 1.517-.859l4.997 2.997a1 1 0 0 1 0 1.718l-4.997 2.997a1 1 0 0 1-1.517-.86z"/>
    </symbol>

    <!-- Minus Icon -->
    <symbol id="minus" viewBox="0 0 24 24" fill="none" stroke="currentColor" stroke-width="2" stroke-linecap="round" stroke-linejoin="round">
        <path d="M5 12h14"/>
    </symbol>

    <!-- Pause Icon -->
    <symbol id="pause" viewBox="0 0 24 24" fill="none" stroke="currentColor" stroke-width="2" stroke-linecap="round" stroke-linejoin="round">
        <rect x="14" y="3" width="5" height="18" rx="1"/>
        <rect x="5" y="3" width="5" height="18" rx="1"/>
    </symbol>

    <!-- Play Icon -->
    <symbol id="play" viewBox="0 0 24 24" fill="none" stroke="currentColor" stroke-width="2" stroke-linecap="round" stroke-linejoin="round">
        <path d="M5 5a2 2 0 0 1 3.008-1.728l11.997 6.998a2 2 0 0 1 .003 3.458l-12 7A2 2 0 0 1 5 19z"/>
    </symbol>

    <!-- Plus Icon -->
    <symbol id="plus" viewBox="0 0 24 24" fill="none" stroke="currentColor" stroke-width="2" stroke-linecap="round" stroke-linejoin="round">
        <path d="M5 12h14"/>
        <path d="M12 5v14"/>
    </symbol>

    <!-- Rotate CCW Icon -->
    <symbol id="rotate-ccw" viewBox="0 0 24 24" fill="none" stroke="currentColor" stroke-width="2" stroke-linecap="round" stroke-linejoin="round">
        <path d="M3 12a9 9 0 1 0 9-9 9.75 9.75 0 0 0-6.74 2.74L3 8"/>
        <path d="M3 3v5h5"/>
    </symbol>

    <!-- Timer Icon -->
    <symbol id="timer" viewBox="0 0 24 24" fill="none" stroke="currentColor" stroke-width="2" stroke-linecap="round" stroke-linejoin="round">
        <line x1="10" x2="14" y1="2" y2="2"/>
        <line x1="12" x2="15" y1="14" y2="11"/>
        <circle cx="12" cy="14" r="8"/>
    </symbol>

    <!-- Close / X Icon -->
    <symbol id="x" viewBox="0 0 24 24" fill="none" stroke="currentColor" stroke-width="2" stroke-linecap="round" stroke-linejoin="round">
        <path d="M18 6 6 18"/>
        <path d="m6 6 12 12"/>
    </symbol>
</svg>

